<mxfile host="app.diagrams.net" modified="2023-08-07T11:03:44.271Z" agent="Mozilla/5.0 (Macintosh; Intel Mac OS X 10_15_7) AppleWebKit/605.1.15 (KHTML, like Gecko) Version/16.5.2 Safari/605.1.15" version="21.6.6" etag="GDyAHI4jC2H7REGGDtSC" type="github">
  <diagram name="Seite-1" id="Y529C0Z7BFVBxGnlMsOk">
    <mxGraphModel>
      <root>
        <mxCell id="0" />
        <mxCell id="1" parent="0" />
      </root>
    </mxGraphModel>
  </diagram>
</mxfile>
